HIERARCHY
ROOT Hips
{
  OFFSET 5.80788e-005 67.184 3.4734
  CHANNELS 6 Xposition Yposition Zposition Zrotation Xrotation Yrotation
  JOINT Chest
  {
    OFFSET 0 8.7983 -4.7612
    CHANNELS 3 Zrotation Xrotation Yrotation
    JOINT Chest2
    {
      OFFSET 0 8.0291 0.4195
      CHANNELS 3 Zrotation Xrotation Yrotation
      JOINT Chest3
      {
        OFFSET 0 9.9351 -2.2114
        CHANNELS 3 Zrotation Xrotation Yrotation
        JOINT Neck
        {
          OFFSET 0 22.3885 -0.4656
          CHANNELS 3 Zrotation Xrotation Yrotation
          JOINT Head
          {
            OFFSET -0.0001 12.643 3.4389
            CHANNELS 3 Zrotation Xrotation Yrotation
            End Site
            {
              OFFSET 0.0001 17.6655 0.5274
            }
          }
        }
        JOINT LeftCollar
        {
          OFFSET 2.2603 21.606 7.4023
          CHANNELS 3 Zrotation Xrotation Yrotation
          JOINT LeftShoulder
          {
            OFFSET 13.5163 -1.1332 -5.0146
            CHANNELS 3 Zrotation Xrotation Yrotation
            JOINT LeftElbow
            {
              OFFSET -0.0995 -28.05 -0.2431
              CHANNELS 3 Zrotation Xrotation Yrotation
              JOINT LeftWrist
              {
                OFFSET 0.0679 -23.3996 -0.1402
                CHANNELS 3 Zrotation Xrotation Yrotation
                JOINT LeftFinger1
                {
                  OFFSET 0.7932 -9.069 2.5189
                  CHANNELS 3 Zrotation Xrotation Yrotation
                  JOINT LeftFinger11
                  {
                    OFFSET -0.8272 -3.3923 0.5977
                    CHANNELS 3 Zrotation Xrotation Yrotation
                    JOINT LeftFinger12
                    {
                      OFFSET -0.5649 -2.3158 0.4082
                      CHANNELS 3 Zrotation Xrotation Yrotation
                      End Site
                      {
                        OFFSET -0.4919 -1.6479 0.2673
                      }
                    }
                  }
                }
                JOINT LeftFinger2
                {
                  OFFSET 0.9159 -9.2044 0.2193
                  CHANNELS 3 Zrotation Xrotation Yrotation
                  JOINT LeftFinger21
                  {
                    OFFSET 0.0117 -4.1944 -0.0248
                    CHANNELS 3 Zrotation Xrotation Yrotation
                    JOINT LeftFinger22
                    {
                      OFFSET 0.0071 -2.3249 -0.0142
                      CHANNELS 3 Zrotation Xrotation Yrotation
                      End Site
                      {
                        OFFSET -0.1475 -2.0882 0.0028
                      }
                    }
                  }
                }
                JOINT LeftFinger3
                {
                  OFFSET 0.6113 -8.7231 -2.0637
                  CHANNELS 3 Zrotation Xrotation Yrotation
                  JOINT LeftFinger31
                  {
                    OFFSET -0.1927 -3.8059 -0.2383
                    CHANNELS 3 Zrotation Xrotation Yrotation
                    JOINT LeftFinger32
                    {
                      OFFSET -0.1091 -2.1688 -0.1362
                      CHANNELS 3 Zrotation Xrotation Yrotation
                      End Site
                      {
                        OFFSET -0.2358 -1.9176 -0.0906
                      }
                    }
                  }
                }
                JOINT LeftFinger4
                {
                  OFFSET -0.6151 -8.0947 -3.5641
                  CHANNELS 3 Zrotation Xrotation Yrotation
                  JOINT LeftFinger41
                  {
                    OFFSET -0.4882 -2.341 -0.6462
                    CHANNELS 3 Zrotation Xrotation Yrotation
                    JOINT LeftFinger42
                    {
                      OFFSET -0.3575 -1.7167 -0.4742
                      CHANNELS 3 Zrotation Xrotation Yrotation
                      End Site
                      {
                        OFFSET -0.4187 -1.5237 -0.3496
                      }
                    }
                  }
                }
                JOINT LeftFinger0
                {
                  OFFSET -1.42 -1.8761 1.4223
                  CHANNELS 3 Zrotation Xrotation Yrotation
                  JOINT LeftFinger01
                  {
                    OFFSET -1.1471 -3.4929 2.6334
                    CHANNELS 3 Zrotation Xrotation Yrotation
                    JOINT LeftFinger02
                    {
                      OFFSET -0.823 -2.3 1.6571
                      CHANNELS 3 Zrotation Xrotation Yrotation
                      End Site
                      {
                        OFFSET -0.5822 -1.6914 1.1582
                      }
                    }
                  }
                }
              }
            }
          }
        }
        JOINT RightCollar
        {
          OFFSET -2.2603 21.606 7.4023
          CHANNELS 3 Zrotation Xrotation Yrotation
          JOINT RightShoulder
          {
            OFFSET -13.5187 -1.1334 -5.0155
            CHANNELS 3 Zrotation Xrotation Yrotation
            JOINT RightElbow
            {
              OFFSET 0.0994 -28.0499 -0.2431
              CHANNELS 3 Zrotation Xrotation Yrotation
              JOINT RightWrist
              {
                OFFSET -0.0679 -23.3996 -0.1402
                CHANNELS 3 Zrotation Xrotation Yrotation
                JOINT RightFinger1
                {
                  OFFSET -0.7932 -9.0691 2.5189
                  CHANNELS 3 Zrotation Xrotation Yrotation
                  JOINT RightFinger11
                  {
                    OFFSET 0.8272 -3.3923 0.5977
                    CHANNELS 3 Zrotation Xrotation Yrotation
                    JOINT RightFinger12
                    {
                      OFFSET 0.565 -2.3158 0.4082
                      CHANNELS 3 Zrotation Xrotation Yrotation
                      End Site
                      {
                        OFFSET 0.4919 -1.6479 0.2673
                      }
                    }
                  }
                }
                JOINT RightFinger2
                {
                  OFFSET -0.916 -9.2044 0.2193
                  CHANNELS 3 Zrotation Xrotation Yrotation
                  JOINT RightFinger21
                  {
                    OFFSET -0.0117 -4.1944 -0.0248
                    CHANNELS 3 Zrotation Xrotation Yrotation
                    JOINT RightFinger22
                    {
                      OFFSET -0.0071 -2.3249 -0.0142
                      CHANNELS 3 Zrotation Xrotation Yrotation
                      End Site
                      {
                        OFFSET 0.1475 -2.0882 0.0028
                      }
                    }
                  }
                }
                JOINT RightFinger3
                {
                  OFFSET -0.6113 -8.7231 -2.0637
                  CHANNELS 3 Zrotation Xrotation Yrotation
                  JOINT RightFinger31
                  {
                    OFFSET 0.1927 -3.8059 -0.2383
                    CHANNELS 3 Zrotation Xrotation Yrotation
                    JOINT RightFinger32
                    {
                      OFFSET 0.1091 -2.1688 -0.1362
                      CHANNELS 3 Zrotation Xrotation Yrotation
                      End Site
                      {
                        OFFSET 0.2358 -1.9176 -0.0906
                      }
                    }
                  }
                }
                JOINT RightFinger4
                {
                  OFFSET 0.6151 -8.0947 -3.564
                  CHANNELS 3 Zrotation Xrotation Yrotation
                  JOINT RightFinger41
                  {
                    OFFSET 0.4882 -2.341 -0.6462
                    CHANNELS 3 Zrotation Xrotation Yrotation
                    JOINT RightFinger42
                    {
                      OFFSET 0.3574 -1.7166 -0.4742
                      CHANNELS 3 Zrotation Xrotation Yrotation
                      End Site
                      {
                        OFFSET 0.4187 -1.5237 -0.3496
                      }
                    }
                  }
                }
                JOINT RightFinger0
                {
                  OFFSET 1.4199 -1.8761 1.4221
                  CHANNELS 3 Zrotation Xrotation Yrotation
                  JOINT RightFinger01
                  {
                    OFFSET 1.1472 -3.4929 2.6336
                    CHANNELS 3 Zrotation Xrotation Yrotation
                    JOINT RightFinger02
                    {
                      OFFSET 0.8229 -2.3 1.6571
                      CHANNELS 3 Zrotation Xrotation Yrotation
                      End Site
                      {
                        OFFSET 0.5822 -1.6914 1.1582
                      }
                    }
                  }
                }
              }
            }
          }
        }
      }
    }
  }
  JOINT RightHip
  {
    OFFSET -9.412 3.9771 -0.7758
    CHANNELS 3 Zrotation Xrotation Yrotation
    JOINT RightKnee
    {
      OFFSET -0.7531 -40.938 0
      CHANNELS 3 Zrotation Xrotation Yrotation
      JOINT RightAnkle
      {
        OFFSET 0 -40.1986 0
        CHANNELS 3 Zrotation Xrotation Yrotation
        JOINT RightToe
        {
          OFFSET 0 -4.4182 9.239
          CHANNELS 3 Zrotation Xrotation Yrotation
          End Site
          {
            OFFSET 0 0 6.1981
          }
        }
      }
    }
  }
  JOINT LeftHip
  {
    OFFSET 9.4119 3.9773 -0.7758
    CHANNELS 3 Zrotation Xrotation Yrotation
    JOINT LeftKnee
    {
      OFFSET 0.7532 -40.9383 0
      CHANNELS 3 Zrotation Xrotation Yrotation
      JOINT LeftAnkle
      {
        OFFSET 0 -40.1986 0
        CHANNELS 3 Zrotation Xrotation Yrotation
        JOINT LeftToe
        {
          OFFSET 0 -4.4182 9.239
          CHANNELS 3 Zrotation Xrotation Yrotation
          End Site
          {
            OFFSET 0 0 6.1981
          }
        }
      }
    }
  }
}
MOTION
Frames:	4
Frame Time:	0.0333333
5.80788e-005 67.184 3.4734 0 0 -0 0 0 -0 0 0 -0 0 0 -0 0 0 -0 0 0 -0 0 0 -12.5014 88.1196 14.2451 10.6914 -0.00160068 -0.00239207 0.000740045 -8.4365e-005 7.00714e-005 -9.52055e-007 9.93923e-017 -1.98785e-016 -1.59028e-015 9.93923e-017 -5.96354e-016 -1.59028e-015 -9.93923e-017 -5.96354e-016 -1.59028e-015 9.93923e-017 -1.98785e-016 -1.59028e-015 -0.0128176 0.00232552 8.52707e-005 9.93923e-017 5.96354e-016 -0 9.93923e-017 -1.98785e-016 -1.59028e-015 -0.0160551 0.00299681 0.000857156 -2.48481e-016 0 3.18055e-015 9.93923e-017 -1.98785e-016 -1.59028e-015 -0.0125865 0.0031206 0.00282719 0 1.98785e-016 -0 9.93923e-017 -1.98785e-016 -1.59028e-015 9.93923e-017 -5.96354e-016 -1.59028e-015 -9.93923e-017 -5.96354e-016 -1.59028e-015 -0.865644 0.16582 7.03859 -88.0329 10.2057 -10.5567 0.0015593 -0.00248883 -0.000788628 7.87605e-005 4.10553e-005 1.24965e-005 -3.97569e-016 -7.95139e-016 3.18055e-015 -1.98785e-016 -3.97569e-016 3.18055e-015 -1.98785e-016 0 3.18055e-015 -3.97569e-016 -7.95139e-016 3.18055e-015 0.0129473 0.00231697 -8.70038e-005 9.93923e-017 -7.95139e-016 1.59028e-015 -3.97569e-016 -7.95139e-016 3.18055e-015 0.0163314 0.00303369 -0.000872333 3.97569e-016 7.95139e-016 -3.18055e-015 -3.97569e-016 -7.95139e-016 3.18055e-015 0.0145763 0.00367772 -0.00326275 9.93923e-017 -3.97569e-016 -0 -3.97569e-016 -7.95139e-016 3.18055e-015 -1.98785e-016 -3.97569e-016 3.18055e-015 -1.98785e-016 0 3.18055e-015 3.42485 1.36937 -0.0640303 0.000136572 0.69354 0.00145564 -3.42573 -2.06297 -0.0607933 -3.19502e-024 0 -1.48106e-024 -3.42498 1.36123 0.0639712 -6.769e-005 0.712612 -0.0012277 3.42582 -2.07388 0.0612819 2.55305e-023 0 -2.31416e-026 
15.878 -1.21678 21.9212 -180 -64.9956 -180 0 20.7998 -0 0 41.5997 -0 0 41.5994 -0 0 30.9973 -0 -0 -35.0004 -0 1.87836e-007 -0.00183718 -12.5014 10.4372 9.20212 22.8231 -52.0659 -75.1824 -44.3318 24.6582 -4.16386 1.6852 -1.11641e-032 1.28713e-014 4.96962e-017 -3.18055e-015 1.26725e-014 -2.48481e-017 -3.18055e-015 1.31695e-014 1.01877e-015 -1.11641e-032 1.28713e-014 4.96962e-017 -0.0128259 0.00232842 9.2663e-005 3.18055e-015 2.98177e-016 4.96962e-016 -1.11641e-032 1.28713e-014 4.96962e-017 -0.0160303 0.00299815 0.000863698 -1.9397e-033 2.48481e-016 4.47266e-016 -1.11641e-032 1.28713e-014 4.96962e-017 -0.0125091 0.00310711 0.00281412 3.18055e-015 4.47266e-016 3.97569e-016 -1.11641e-032 1.28713e-014 4.96962e-017 -3.18055e-015 1.26725e-014 -2.48481e-017 -3.18055e-015 1.31695e-014 1.01877e-015 7.38332 3.61288 24.9013 -24.9747 -48.3315 8.83105 5.92558 -4.96957 1.90126 36.6547 27.1015 1.39735 1.76556e-031 -3.18055e-015 3.18055e-015 -1.59028e-015 -1.59028e-015 -0 -0 -3.18055e-015 -0 1.76556e-031 -3.18055e-015 3.18055e-015 0.0129079 0.00230899 -7.25635e-005 -4.4583e-006 -1.62998e-006 1.76317e-007 1.76556e-031 -3.18055e-015 3.18055e-015 0.0163104 0.00303198 -0.000875299 2.49752e-006 2.64337e-006 6.42066e-007 1.76556e-031 -3.18055e-015 3.18055e-015 0.0146192 0.00368677 -0.00326509 1.59028e-015 -3.97569e-015 -3.18055e-015 1.76556e-031 -3.18055e-015 3.18055e-015 -1.59028e-015 -1.59028e-015 -0 -0 -3.18055e-015 -0 -62.5841 -32.5539 -30.3707 179.925 40.8212 174.659 -1.90291 12.6354 -3.38252 -4.12436e-006 -1.39566e-006 1.79757e-006 50.1695 -31.6614 17.1524 -179.944 36.4418 -174.211 1.88901 -4.83789 3.98457 -1.50923e-006 -4.72872e-007 7.6994e-009 
15.8814 -1.221 21.4935 -180 -64.9956 -180 0 20.7998 -0 0 41.5997 -0 0 41.5994 -0 0 30.9973 -0 -0 -35.9591 -0 -8.00298e-008 -0.00183968 -12.5014 10.4372 9.20211 22.8231 -52.0661 -75.1824 -44.332 24.6582 -4.16382 1.68521 -3.18055e-015 1.98785e-016 1.49089e-015 -3.18055e-015 5.46658e-016 1.71452e-015 -3.18055e-015 7.45443e-016 9.19379e-016 -3.18055e-015 1.98785e-016 1.49089e-015 -0.0128827 0.0023346 8.0233e-005 1.12292e-007 -6.32874e-006 6.36847e-006 -3.18055e-015 1.98785e-016 1.49089e-015 -0.0160274 0.00298512 0.000855616 8.18987e-034 9.93923e-017 -4.72114e-016 -3.18055e-015 1.98785e-016 1.49089e-015 -0.0125973 0.00311449 0.00283578 -6.36111e-015 -4.96962e-017 -1.04362e-015 -3.18055e-015 1.98785e-016 1.49089e-015 -3.18055e-015 5.46658e-016 1.71452e-015 -3.18055e-015 7.45443e-016 9.19379e-016 7.07863 3.47207 24.8775 -25.0821 -48.6948 8.74633 5.92551 -4.96946 1.90125 35.4808 25.9591 0.405016 4.77083e-015 -7.95139e-016 -9.54166e-015 -1.59028e-015 -2.38542e-015 -0 -3.18055e-015 7.95139e-016 -3.18055e-015 4.77083e-015 -7.95139e-016 -9.54166e-015 0.0129699 0.00232317 -9.16948e-005 7.95139e-015 -7.95139e-016 3.18055e-015 4.77083e-015 -7.95139e-016 -9.54166e-015 0.0163702 0.00304412 -0.000883951 -8.82781e-032 -1.59028e-015 -3.18055e-015 4.77083e-015 -7.95139e-016 -9.54166e-015 0.0145336 0.0036613 -0.00325885 1.59028e-015 -4.77083e-015 6.36111e-015 4.77083e-015 -7.95139e-016 -9.54166e-015 -1.59028e-015 -2.38542e-015 -0 -3.18055e-015 7.95139e-016 -3.18055e-015 -61.4909 -32.5562 -28.8019 179.928 41.6943 174.765 -1.93788 12.7104 -3.30599 1.59028e-015 1.63744e-006 -0 49.5066 -31.745 16.1465 -179.946 37.5836 -174.391 1.90893 -4.69726 3.86294 -4.17456e-006 3.21779e-006 -2.36882e-006 
15.8846 -1.2248 21.0658 -180 -64.9956 -180 0 20.7998 -0 0 41.5997 -0 0 41.5994 -0 0 30.9973 -0 -0 -36.9201 -0 -8.00298e-008 -0.00183968 -12.5014 10.4372 9.20211 22.8231 -52.0661 -75.1824 -44.332 24.6582 -4.16382 1.68521 -3.18055e-015 1.98785e-016 1.49089e-015 -3.18055e-015 5.46658e-016 1.71452e-015 -3.18055e-015 7.45443e-016 9.19379e-016 -3.18055e-015 1.98785e-016 1.49089e-015 -0.0128827 0.0023346 8.0233e-005 1.12292e-007 -6.32874e-006 6.36847e-006 -3.18055e-015 1.98785e-016 1.49089e-015 -0.0160351 0.00298325 0.000854713 4.63105e-006 1.32859e-006 1.73492e-006 -3.18055e-015 1.98785e-016 1.49089e-015 -0.0125973 0.00311449 0.00283578 -6.36111e-015 -4.96962e-017 -1.04362e-015 -3.18055e-015 1.98785e-016 1.49089e-015 -3.18055e-015 5.46658e-016 1.71452e-015 -3.18055e-015 7.45443e-016 9.19379e-016 6.77389 3.33136 24.8529 -25.1909 -49.0582 8.66012 5.92545 -4.96936 1.90121 34.2911 24.8302 -0.607993 -2.56427e-006 1.77248e-006 -5.67563e-007 6.36111e-015 -3.18055e-015 -3.18055e-015 2.08427e-006 -1.73563e-006 6.76212e-007 -2.56427e-006 1.77248e-006 -5.67563e-007 0.0129377 0.00231869 -8.93201e-005 7.65099e-007 1.36689e-006 -3.63389e-007 -2.56427e-006 1.77248e-006 -5.67563e-007 0.0163159 0.00303063 -0.000869091 1.31941e-006 2.16424e-006 1.03969e-006 -2.56427e-006 1.77248e-006 -5.67563e-007 0.0146115 0.00369375 -0.00326846 2.08448e-006 2.99069e-006 6.76289e-007 -2.56427e-006 1.77248e-006 -5.67563e-007 6.36111e-015 -3.18055e-015 -3.18055e-015 2.08427e-006 -1.73563e-006 6.76212e-007 -60.3932 -32.536 -27.2368 179.931 42.5673 174.868 -1.97146 12.7828 -3.23218 -4.33852e-006 -1.57443e-006 1.81074e-006 48.8371 -31.815 15.1532 -179.948 38.7276 -174.561 1.92741 -4.56374 3.74764 -1.52662e-006 -4.37304e-007 6.73468e-008 
